<svg width="96" height="97" viewBox="0 0 96 97" fill="none" xmlns="http://www.w3.org/2000/svg">
<rect x="-3.2" y="3.2" width="89.6" height="89.6" rx="44.8" transform="matrix(-1 0 0 1 89.5999 0.5)" stroke="#313131" stroke-width="6.4"/>
<path d="M71.9999 45.3C73.7672 45.3 75.1999 46.7327 75.1999 48.5C75.1999 50.2673 73.7672 51.7 71.9999 51.7L71.9999 45.3ZM21.7371 50.7627C20.4875 49.5131 20.4875 47.4869 21.7371 46.2373L42.1018 25.8726C43.3515 24.6229 45.3776 24.6229 46.6273 25.8726C47.877 27.1223 47.877 29.1484 46.6273 30.3981L28.5254 48.5L46.6273 66.6019C47.877 67.8516 47.877 69.8777 46.6273 71.1274C45.3776 72.3771 43.3515 72.3771 42.1018 71.1274L21.7371 50.7627ZM71.9999 51.7L23.9999 51.7L23.9999 45.3L71.9999 45.3L71.9999 51.7Z" fill="#313131"/>
</svg>
