<svg width="96" height="96" viewBox="0 0 96 96" fill="none" xmlns="http://www.w3.org/2000/svg">
<rect width="96" height="96" rx="48" transform="matrix(-1 0 0 1 96 0)" fill="#DEDEDE" fill-opacity="0.8"/>
<path d="M39 44.8C40.7673 44.8 42.2 46.2327 42.2 48C42.2 49.7673 40.7673 51.2 39 51.2L39 44.8ZM34.7373 50.2627C33.4876 49.0131 33.4876 46.9869 34.7373 45.7372L55.102 25.3726C56.3517 24.1229 58.3778 24.1229 59.6275 25.3726C60.8771 26.6223 60.8771 28.6484 59.6275 29.8981L41.5255 48L59.6274 66.102C60.8771 67.3517 60.8771 69.3778 59.6274 70.6275C58.3777 71.8771 56.3516 71.8771 55.1019 70.6275L34.7373 50.2627ZM39 51.2L37 51.2L37 44.8L39 44.8L39 51.2Z" fill="#313131"/>
</svg>
