<svg width="40" height="40" viewBox="0 0 40 40" fill="none" xmlns="http://www.w3.org/2000/svg">
<path fill-rule="evenodd" clip-rule="evenodd" d="M27.9269 3.64441L33.2618 7.98636C33.7769 8.48827 34.0657 9.17815 34.0613 9.8973C34.0572 10.6165 33.7607 11.303 33.2398 11.7989L29.1859 16.7361L15.3893 33.569C15.1504 33.8504 14.829 34.049 14.4705 34.1367L7.31715 35.7824C6.36796 35.8217 5.54944 35.1217 5.44104 34.1779L5.77567 27.1205C5.80046 26.7601 5.94309 26.4181 6.18161 26.1468L19.3829 10.06L24.0321 4.38773C24.9353 3.15821 26.6345 2.83398 27.9269 3.64441Z" stroke="black" stroke-width="4.11429" stroke-linecap="round" stroke-linejoin="round"/>
<path d="M21.2905 9.29161C20.8651 8.23808 19.6665 7.72873 18.613 8.15399C17.5594 8.57924 17.0501 9.77803 17.4752 10.8316L21.2905 9.29161ZM29.6392 18.7525C30.7474 18.5022 31.4427 17.4008 31.1925 16.2926C30.9421 15.1844 29.8408 14.489 28.7325 14.7394L29.6392 18.7525ZM17.4752 10.8316C18.1135 12.4125 19.424 14.6662 21.3756 16.4016C23.363 18.169 26.1934 19.5309 29.6392 18.7525L28.7325 14.7394C26.9696 15.1376 25.4471 14.5165 24.1096 13.3271C22.736 12.1056 21.7494 10.4289 21.2905 9.29161L17.4752 10.8316Z" fill="black"/>
</svg>
