<svg width="52" height="45" viewBox="0 0 52 45" fill="none" xmlns="http://www.w3.org/2000/svg">
<path fill-rule="evenodd" clip-rule="evenodd" d="M10.4474 4.45253C6.48517 6.23911 3.58248 10.4885 3.58248 15.5558C3.58248 20.7327 5.7301 24.723 8.80881 28.1429C11.3462 30.9613 14.4179 33.2972 17.4135 35.5754C18.125 36.1165 18.8322 36.6544 19.527 37.1946C20.7833 38.1716 21.904 39.0289 22.9842 39.6516C24.0649 40.2748 24.935 40.5591 25.6744 40.5591C26.4138 40.5591 27.2839 40.2748 28.3646 39.6516C29.4449 39.0289 30.5655 38.1716 31.8219 37.1946C32.5167 36.6544 33.2239 36.1165 33.9354 35.5754C36.931 33.2972 40.0027 30.9613 42.54 28.1429C45.6188 24.723 47.7664 20.7327 47.7664 15.5558C47.7664 10.4885 44.8636 6.23911 40.9014 4.45253C37.0521 2.71689 31.88 3.17653 26.9651 8.2139C26.6274 8.55996 26.1614 8.7555 25.6744 8.7555C25.1874 8.7555 24.7215 8.55996 24.3838 8.2139C19.4688 3.17653 14.2966 2.71689 10.4474 4.45253ZM25.6744 4.53412C20.1525 -0.33932 13.9692 -1.02106 8.95801 1.23849C3.66538 3.62496 0 9.16638 0 15.5558C0 21.8356 2.65223 26.6264 6.13014 30.4894C8.91528 33.583 12.3242 36.1724 15.335 38.459C16.0175 38.9773 16.6795 39.4803 17.3091 39.9699C18.5325 40.9212 19.8458 41.9357 21.1767 42.7028C22.5073 43.4696 24.0255 44.093 25.6744 44.093C27.3233 44.093 28.8416 43.4696 30.1721 42.7028C31.5031 41.9357 32.8162 40.9212 34.0397 39.9699C34.6693 39.4803 35.3313 38.9773 36.0139 38.459C39.0246 36.1724 42.4335 33.583 45.2187 30.4894C48.6966 26.6264 51.3488 21.8356 51.3488 15.5558C51.3488 9.16638 47.6835 3.62496 42.3907 1.23849C37.3796 -1.02106 31.1964 -0.33932 25.6744 4.53412Z" fill="#FF3D3D"/>
<path d="M7 5L15.5 2.5L26 6.5L37.5 2.5L45 5L50 16.5L45 30L26 42L7 30L1.5 16L7 5Z" fill="#FF3D3D"/>
</svg>
