<svg width="53" height="45" viewBox="0 0 53 45" fill="none" xmlns="http://www.w3.org/2000/svg">
<path fill-rule="evenodd" clip-rule="evenodd" d="M11.3078 5.31386C7.34564 7.10044 4.44295 11.3499 4.44295 16.4172C4.44295 21.5941 6.59057 25.5843 9.66928 29.0042C12.2067 31.8226 15.2784 34.1585 18.274 36.4367C18.9855 36.9779 19.6927 37.5157 20.3875 38.0559C21.6438 39.0329 22.7645 39.8903 23.8447 40.5129C24.9254 41.1361 25.7955 41.4204 26.5349 41.4204C27.2743 41.4204 28.1444 41.1361 29.2251 40.5129C30.3053 39.8903 31.4259 39.0329 32.6824 38.0559C33.3772 37.5157 34.0844 36.9779 34.7958 36.4367C37.7915 34.1585 40.8631 31.8226 43.4005 29.0042C46.4793 25.5843 48.6268 21.5941 48.6268 16.4172C48.6268 11.3499 45.7241 7.10044 41.7619 5.31386C37.9126 3.57822 32.7405 4.03786 27.8255 9.07523C27.4878 9.42129 27.0219 9.61683 26.5349 9.61683C26.0479 9.61683 25.582 9.42129 25.2442 9.07523C20.3292 4.03786 15.1571 3.57822 11.3078 5.31386ZM26.5349 5.39545C21.013 0.522008 14.8296 -0.15973 9.81848 2.09982C4.52585 4.48629 0.860474 10.0277 0.860474 16.4172C0.860474 22.6969 3.5127 27.4877 6.99062 31.3507C9.77575 34.4443 13.1847 37.0337 16.1955 39.3204C16.8779 39.8387 17.54 40.3417 18.1696 40.8312C19.393 41.7826 20.7063 42.797 22.0372 43.5641C23.3677 44.331 24.886 44.9543 26.5349 44.9543C28.1838 44.9543 29.702 44.331 31.0326 43.5641C32.3636 42.797 33.6767 41.7826 34.9002 40.8312C35.5298 40.3417 36.1918 39.8387 36.8744 39.3204C39.8851 37.0337 43.294 34.4443 46.0792 31.3507C49.5571 27.4877 52.2093 22.6969 52.2093 16.4172C52.2093 10.0277 48.544 4.48629 43.2512 2.09982C38.24 -0.15973 32.0569 0.522008 26.5349 5.39545Z" fill="#D9D9D9"/>
</svg>
