<svg width="66" height="65" viewBox="0 0 66 65" fill="none" xmlns="http://www.w3.org/2000/svg">
<path d="M41.8619 56.6617C41.582 58.9374 39.7 59.4414 38.8764 61.5539C38.5152 62.4804 38.13 64.0001 38.13 64.0001L48.9526 63.1847C48.9526 63.1847 49.8667 58.4748 49.699 55.4386C49.5922 53.5052 48.9526 50.5464 48.9526 50.5464L47.4598 46.0618C47.4598 46.0618 47.0866 44.8388 45.5939 42.3926C44.8475 41.1696 43.517 40.7973 41.4887 40.3542L37.7568 39.5388C37.7568 39.5388 33.4278 39.4764 31.7857 37.5004C30.9094 36.446 29.8352 35.5722 30.2929 34.2389C30.7783 32.8246 33.6516 32.6081 33.6516 32.6081C33.6516 32.6081 37.2842 32.2298 39.6227 31.7928C49.4429 29.9575 65 28.9389 65 28.9389L40.3691 22.4159C40.3691 22.4159 34.4554 17.7591 30.2929 18.3391C26.993 18.7989 24.9472 20.0215 22.829 22.8236C20.6865 25.6578 20.3682 28.1208 20.2166 31.7928C20.0399 36.0753 20.3749 39.0475 22.829 42.3926C24.9548 45.2903 24.6949 44.8387 30.2929 47.2849C35.5176 48.9156 38.5031 49.1209 39.6227 50.5464C41.1559 52.4985 42.1754 54.1124 41.8619 56.6617Z" stroke="black" stroke-width="0.8"/>
<path d="M31.0392 18.2899C31.0392 18.2899 27.174 18.3213 25.8144 16.6592C24.9168 15.5618 25.0802 14.6079 25.0802 14.6079M25.0802 14.6079C25.0802 14.6079 25.1363 12.5921 24.8569 11.3555C24.1301 8.1391 22.667 6.20601 19.9167 4.81012C18.5367 4.10976 16.1114 3.89536 16.1114 3.89536C16.1114 3.89536 16.8303 6.12898 17.4791 7.46281C18.8068 10.1927 19.4925 12.2403 22.0192 13.6322C23.1311 14.2446 25.0802 14.6079 25.0802 14.6079Z" stroke="black" stroke-width="0.8"/>
<path d="M28.8492 18.4645C28.8492 18.4645 24.7778 19.4672 22.4559 18.4645C20.6067 17.6659 18.4762 14.9946 18.4762 14.9946M18.4762 14.9946C18.4762 14.9946 18.3632 12.9817 17.9814 11.7782C16.9882 8.64795 15.3693 6.86927 12.5135 5.75422C11.0807 5.19477 8.64763 5.22376 8.64763 5.22376C8.64763 5.22376 9.55062 7.37614 10.3084 8.6395C11.8593 11.2252 12.7136 13.1957 15.3464 14.329C16.5049 14.8278 18.4762 14.9946 18.4762 14.9946Z" stroke="black" stroke-width="0.8"/>
<path d="M26.5902 18.9C26.5902 18.9 23.0863 21.1945 20.59 21.1429C18.6019 21.1017 15.7616 19.6149 15.7616 19.6149M15.7616 19.6149C15.7616 19.6149 14.9355 17.8352 14.2678 16.7911C12.4715 13.9823 11.1306 12.3666 8.27449 10.9506C5.72166 9.68501 1.18375 9.72749 1.18375 9.72749C1.18375 9.72749 1.96716 11.7943 2.67657 12.9891C5.2111 17.2575 8.17483 20.1329 12.6165 20.1879C13.8616 20.2033 15.7616 19.6149 15.7616 19.6149Z" stroke="black" stroke-width="0.8"/>
<path d="M38.5031 24.8611C38.5031 25.2894 38.4259 25.7135 38.2758 26.1092C38.1258 26.5049 37.9059 26.8645 37.6286 27.1673C37.3514 27.4702 37.0223 27.7104 36.6601 27.8743C36.2978 28.0382 35.9096 28.1226 35.5175 28.1226C35.1255 28.1226 34.7372 28.0382 34.375 27.8743C34.0128 27.7104 33.6837 27.4702 33.4064 27.1673C33.1292 26.8645 32.9093 26.5049 32.7592 26.1092C32.6092 25.7135 32.532 25.2894 32.532 24.8611H33.4276C33.4276 25.1609 33.4817 25.4578 33.5867 25.7348C33.6918 26.0118 33.8457 26.2635 34.0398 26.4755C34.2338 26.6875 34.4642 26.8556 34.7178 26.9704C34.9713 27.0851 35.2431 27.1442 35.5175 27.1442C35.792 27.1442 36.0637 27.0851 36.3173 26.9704C36.5709 26.8556 36.8013 26.6875 36.9953 26.4755C37.1894 26.2635 37.3433 26.0118 37.4483 25.7348C37.5534 25.4578 37.6074 25.1609 37.6074 24.8611H38.5031Z" fill="black"/>
</svg>
