<svg width="629" height="603" viewBox="0 0 629 603" fill="none" xmlns="http://www.w3.org/2000/svg">
<path d="M1037.01 407.243C965.437 514.852 704.431 467.083 454.032 300.548C203.633 134.012 58.663 -88.2263 130.232 -195.836C201.801 -303.445 351.023 73.5087 713.206 -89.1406C1078.41 -156.107 1108.58 299.633 1037.01 407.243Z" fill="#06FFE1"/>
<path d="M1037.01 407.243C965.437 514.852 704.431 467.083 454.032 300.548C203.633 134.012 58.663 -88.2263 130.232 -195.836C201.801 -303.445 351.023 73.5087 713.206 -89.1406C1078.41 -156.107 1108.58 299.633 1037.01 407.243Z" fill="url(#paint0_linear_326_2829)" fill-opacity="0.6"/>
<path d="M879.591 276.516C838.078 338.934 686.684 311.226 541.442 214.629C396.201 118.031 312.112 -10.8759 353.625 -73.2937C395.138 -135.712 481.693 82.9369 691.774 -11.4062C903.605 -50.2492 921.104 214.098 879.591 276.516Z" fill="#06FFE1"/>
<path d="M879.591 276.516C838.078 338.934 686.684 311.226 541.442 214.629C396.201 118.031 312.112 -10.8759 353.625 -73.2937C395.138 -135.712 481.693 82.9369 691.774 -11.4062C903.605 -50.2492 921.104 214.098 879.591 276.516Z" fill="url(#paint1_linear_326_2829)" fill-opacity="0.6"/>
<path d="M800.884 170.029C774.245 210.083 677.096 192.302 583.895 130.316C490.695 68.3303 436.735 -14.389 463.374 -54.4422C490.013 -94.4955 545.555 45.8103 680.362 -14.7293C816.293 -39.6547 827.523 129.976 800.884 170.029Z" fill="#06FFE1"/>
<path d="M800.884 170.029C774.245 210.083 677.096 192.302 583.895 130.316C490.695 68.3303 436.735 -14.389 463.374 -54.4422C490.013 -94.4955 545.555 45.8103 680.362 -14.7293C816.293 -39.6547 827.523 129.976 800.884 170.029Z" fill="url(#paint2_linear_326_2829)" fill-opacity="0.6"/>
<defs>
<linearGradient id="paint0_linear_326_2829" x1="1145.29" y1="138.785" x2="85.577" y2="55.4954" gradientUnits="userSpaceOnUse">
<stop offset="0.1" stop-color="#072E33"/>
<stop offset="1" stop-color="#EFEFEF"/>
</linearGradient>
<linearGradient id="paint1_linear_326_2829" x1="942.403" y1="120.8" x2="327.724" y2="72.4885" gradientUnits="userSpaceOnUse">
<stop offset="0.1" stop-color="#072E33"/>
<stop offset="1" stop-color="#EFEFEF"/>
</linearGradient>
<linearGradient id="paint2_linear_326_2829" x1="841.19" y1="70.1068" x2="446.753" y2="39.1056" gradientUnits="userSpaceOnUse">
<stop offset="0.1" stop-color="#072E33"/>
<stop offset="1" stop-color="#EFEFEF"/>
</linearGradient>
</defs>
</svg>
