<svg width="464" height="112" viewBox="0 0 464 112" fill="none" xmlns="http://www.w3.org/2000/svg">
<path d="M116 4.01063C116 4.01063 129.412 10.3254 145 4.01063C160.588 -2.30413 166.025 -0.274141 174 4.01063C181.975 8.29541 192.125 9.64907 203 4.01063C213.875 -1.6278 232 4.01063 232 4.01063V111.5H116V4.01063Z" fill="#00DC16"/>
<path d="M0 4.01063C0 4.01063 13.4125 10.3254 29 4.01063C44.5875 -2.30413 50.025 -0.274141 58 4.01063C65.975 8.29541 76.125 9.64907 87 4.01063C97.875 -1.6278 116 4.01063 116 4.01063V111.5H0V4.01063Z" fill="#00DC16"/>
<path d="M348 4.01063C348 4.01063 361.412 10.3254 377 4.01063C392.588 -2.30413 398.025 -0.274141 406 4.01063C413.975 8.29541 424.125 9.64907 435 4.01063C445.875 -1.6278 464 4.01063 464 4.01063V111.5H348V4.01063Z" fill="#00DC16"/>
<path d="M232 4.01063C232 4.01063 245.412 10.3254 261 4.01063C276.588 -2.30413 282.025 -0.274141 290 4.01063C297.975 8.29541 308.125 9.64907 319 4.01063C329.875 -1.6278 348 4.01063 348 4.01063V111.5H232V4.01063Z" fill="#00DC16"/>
</svg>
